<svg width="28" height="32" viewBox="0 0 28 32" fill="none" xmlns="http://www.w3.org/2000/svg">
<path d="M6.00007 12.14V2H4.00007V12.14C3.1527 12.3703 2.40465 12.873 1.87134 13.5706C1.33802 14.2682 1.04907 15.1219 1.04907 16C1.04907 16.8781 1.33802 17.7318 1.87134 18.4294C2.40465 19.127 3.1527 19.6297 4.00007 19.86V30H6.00007V19.86C6.84744 19.6297 7.59549 19.127 8.12881 18.4294C8.66213 17.7318 8.95107 16.8781 8.95107 16C8.95107 15.1219 8.66213 14.2682 8.12881 13.5706C7.59549 12.873 6.84744 12.3703 6.00007 12.14ZM5.00007 18C4.60451 18 4.21783 17.8827 3.88893 17.6629C3.56003 17.4432 3.30369 17.1308 3.15231 16.7654C3.00094 16.3999 2.96133 15.9978 3.0385 15.6098C3.11567 15.2219 3.30615 14.8655 3.58586 14.5858C3.86556 14.3061 4.22193 14.1156 4.60989 14.0384C4.99785 13.9613 5.39999 14.0009 5.76544 14.1522C6.13089 14.3036 6.44325 14.56 6.66301 14.8889C6.88277 15.2178 7.00007 15.6044 7.00007 16C7.00007 16.5304 6.78936 17.0391 6.41429 17.4142C6.03921 17.7893 5.53051 18 5.00007 18Z" fill="#134991"/>
<path d="M15.0001 20.14V2H13.0001V20.14C12.1527 20.3703 11.4047 20.873 10.8713 21.5706C10.338 22.2682 10.0491 23.1219 10.0491 24C10.0491 24.8781 10.338 25.7318 10.8713 26.4294C11.4047 27.127 12.1527 27.6297 13.0001 27.86V30H15.0001V27.86C15.8474 27.6297 16.5955 27.127 17.1288 26.4294C17.6621 25.7318 17.9511 24.8781 17.9511 24C17.9511 23.1219 17.6621 22.2682 17.1288 21.5706C16.5955 20.873 15.8474 20.3703 15.0001 20.14ZM14.0001 26C13.6045 26 13.2178 25.8827 12.8889 25.6629C12.56 25.4432 12.3037 25.1308 12.1523 24.7654C12.0009 24.3999 11.9613 23.9978 12.0385 23.6098C12.1157 23.2219 12.3062 22.8655 12.5859 22.5858C12.8656 22.3061 13.2219 22.1156 13.6099 22.0384C13.9979 21.9613 14.4 22.0009 14.7654 22.1522C15.1309 22.3036 15.4432 22.56 15.663 22.8889C15.8828 23.2178 16.0001 23.6044 16.0001 24C16.0001 24.5304 15.7894 25.0391 15.4143 25.4142C15.0392 25.7893 14.5305 26 14.0001 26Z" fill="#134991"/>
<path d="M27.0001 8C26.9972 7.11544 26.7012 6.25679 26.1584 5.55836C25.6156 4.85993 24.8565 4.36114 24.0001 4.14V2H22.0001V4.14C21.1527 4.37028 20.4047 4.873 19.8713 5.5706C19.338 6.26819 19.0491 7.1219 19.0491 8C19.0491 8.8781 19.338 9.73181 19.8713 10.4294C20.4047 11.127 21.1527 11.6297 22.0001 11.86V30H24.0001V11.86C24.8565 11.6389 25.6156 11.1401 26.1584 10.4416C26.7012 9.74321 26.9972 8.88456 27.0001 8ZM23.0001 10C22.6045 10 22.2178 9.8827 21.8889 9.66294C21.56 9.44318 21.3037 9.13082 21.1523 8.76537C21.0009 8.39991 20.9613 7.99778 21.0385 7.60982C21.1157 7.22186 21.3062 6.86549 21.5859 6.58579C21.8656 6.30608 22.2219 6.1156 22.6099 6.03843C22.9979 5.96126 23.4 6.00087 23.7654 6.15224C24.1309 6.30362 24.4432 6.55996 24.663 6.88886C24.8828 7.21776 25.0001 7.60444 25.0001 8C25.0001 8.53043 24.7894 9.03914 24.4143 9.41421C24.0392 9.78929 23.5305 10 23.0001 10Z" fill="#134991"/>
</svg>
