<svg width="38" height="39" viewBox="0 0 38 39" fill="none" xmlns="http://www.w3.org/2000/svg">
<g clip-path="url(#clip0_37_178)">
<path d="M5.9856 12.3054C5.9856 9.12454 11.1382 6.54822 17.4999 6.54822C23.8615 6.54822 29.0142 9.12454 29.0142 12.3054C29.0142 15.4862 23.8615 18.0625 17.4999 18.0625C11.1382 18.0625 5.9856 15.4862 5.9856 12.3054ZM17.615 28.1375H17.4999C11.1382 28.1375 5.9856 25.5612 5.9856 22.3804V26.6982C5.9856 29.879 11.1382 32.4554 17.4999 32.4554C17.6438 32.4554 17.7877 32.4554 17.9173 32.4554C17.6582 31.5342 17.4999 30.5699 17.4999 29.5768C17.4999 29.0874 17.5431 28.6125 17.615 28.1375ZM29.0142 19.6169C29.0142 19.5738 29.0142 19.545 29.0142 19.5018V15.1839C29.0142 18.3648 23.8615 20.9411 17.4999 20.9411C11.1382 20.9411 5.9856 18.3648 5.9856 15.1839V19.5018C5.9856 22.6826 11.1382 25.2589 17.4999 25.2589C17.8309 25.2589 18.162 25.2589 18.493 25.2589C20.1194 21.8478 23.5737 19.5018 27.5749 19.5018C28.0642 19.5018 28.5392 19.545 29.0142 19.6169ZM34.4834 31.5918C34.6274 31.5918 34.6274 31.7357 34.4834 31.8796L33.0442 34.3264C32.9002 34.4704 32.7563 34.4704 32.6124 34.4704L30.8852 33.8946C30.4535 34.1825 30.1656 34.3264 29.7338 34.6143L29.4459 36.4854C29.4459 36.6293 29.302 36.7732 29.1581 36.7732H26.2795C26.1356 36.7732 25.9917 36.6293 25.8477 36.4854L25.5599 34.6143C25.1281 34.4704 24.6963 34.1825 24.4085 33.8946L22.6813 34.6143C22.5374 34.6143 22.3935 34.6143 22.2495 34.4704L20.8102 32.0236C20.6663 31.8796 20.8102 31.7357 20.9542 31.5918L22.5374 30.4404V29.0011L20.9542 27.8496C20.8102 27.7057 20.8102 27.5618 20.8102 27.4179L22.2495 24.9711C22.3935 24.8271 22.5374 24.8271 22.6813 24.8271L24.4085 25.5468C24.8402 25.2589 25.1281 25.115 25.5599 24.8271L25.8477 22.9561C25.8477 22.8121 25.9917 22.6682 26.2795 22.6682H29.1581C29.302 22.6682 29.4459 22.8121 29.4459 22.9561L29.7338 24.8271C30.1656 24.9711 30.5974 25.2589 31.0292 25.5468L32.7563 24.8271C32.9002 24.8271 33.1881 24.8271 33.1881 24.9711L34.6274 27.4179C34.7713 27.5618 34.6274 27.7057 34.4834 27.8496L32.9002 29.0011V30.4404L34.4834 31.5918ZM29.7338 29.5768C29.7338 28.4254 28.7263 27.4179 27.5749 27.4179C26.4235 27.4179 25.416 28.4254 25.416 29.5768C25.416 30.7282 26.4235 31.7357 27.5749 31.7357C28.7263 31.7357 29.7338 30.7282 29.7338 29.5768Z" fill="#134991"/>
</g>
<defs>
<clipPath id="clip0_37_178">
<rect width="34.5429" height="34.5429" fill="white" transform="translate(0.228516 2.22852)"/>
</clipPath>
</defs>
</svg>
