<svg width="4" height="14" viewBox="0 0 4 14" fill="none" xmlns="http://www.w3.org/2000/svg">
<path fill-rule="evenodd" clip-rule="evenodd" d="M3.6416 12.0015C3.6416 13.1062 2.8264 14.0017 1.8208 14.0017C0.815198 14.0017 -3.26659e-06 13.1062 -3.17868e-06 12.0015C-3.09077e-06 10.8968 0.815198 10.0012 1.8208 10.0012C2.8264 10.0012 3.6416 10.8968 3.6416 12.0015Z" fill="black"/>
<path fill-rule="evenodd" clip-rule="evenodd" d="M3.6416 7.00098C3.6416 8.10568 2.8264 9.00122 1.8208 9.00122C0.815198 9.00122 -3.26659e-06 8.10568 -3.17868e-06 7.00098C-3.09077e-06 5.89627 0.815198 5.00073 1.8208 5.00073C2.8264 5.00073 3.6416 5.89627 3.6416 7.00098Z" fill="black"/>
<path fill-rule="evenodd" clip-rule="evenodd" d="M3.6416 2.00024C3.6416 3.10495 2.8264 4.00049 1.8208 4.00049C0.815198 4.00049 -3.26659e-06 3.10495 -3.17868e-06 2.00024C-3.09077e-06 0.89554 0.815198 2.05394e-07 1.8208 3.0197e-07C2.8264 3.98547e-07 3.6416 0.89554 3.6416 2.00024Z" fill="black"/>
</svg>
