<svg width="4" height="14" viewBox="0 0 4 14" fill="none" xmlns="http://www.w3.org/2000/svg">
<path fill-rule="evenodd" clip-rule="evenodd" d="M3.64172 12.0015C3.64172 13.1062 2.82652 14.0017 1.82092 14.0017C0.81532 14.0017 0.000118804 13.1062 0.000118892 12.0015C0.00011898 10.8968 0.81532 10.0012 1.82092 10.0012C2.82652 10.0012 3.64172 10.8968 3.64172 12.0015Z" fill="black"/>
<path fill-rule="evenodd" clip-rule="evenodd" d="M3.64172 7.00098C3.64172 8.10568 2.82652 9.00122 1.82092 9.00122C0.81532 9.00122 0.000118804 8.10568 0.000118892 7.00098C0.00011898 5.89627 0.81532 5.00073 1.82092 5.00073C2.82652 5.00073 3.64172 5.89627 3.64172 7.00098Z" fill="black"/>
<path fill-rule="evenodd" clip-rule="evenodd" d="M3.64172 2.00024C3.64172 3.10495 2.82652 4.00049 1.82092 4.00049C0.81532 4.00049 0.000118804 3.10495 0.000118892 2.00024C0.00011898 0.89554 0.81532 2.05394e-07 1.82092 3.0197e-07C2.82652 3.98547e-07 3.64172 0.89554 3.64172 2.00024Z" fill="black"/>
</svg>
