<svg width="34" height="34" viewBox="0 0 34 34" fill="none" xmlns="http://www.w3.org/2000/svg">
<path d="M28.3334 11.3334L19.8334 2.83337H8.50008C7.74863 2.83337 7.02797 3.13188 6.49661 3.66324C5.96526 4.19459 5.66675 4.91526 5.66675 5.66671V28.3334C5.66675 29.0848 5.96526 29.8055 6.49661 30.3368C7.02797 30.8682 7.74863 31.1667 8.50008 31.1667H25.5001C26.2515 31.1667 26.9722 30.8682 27.5035 30.3368C28.0349 29.8055 28.3334 29.0848 28.3334 28.3334V11.3334ZM12.7501 26.9167H9.91675V14.1667H12.7501V26.9167ZM18.4167 26.9167H15.5834V18.4167H18.4167V26.9167ZM24.0834 26.9167H21.2501V22.6667H24.0834V26.9167ZM19.8334 12.75H18.4167V5.66671L25.5001 12.75H19.8334Z" fill="#134991"/>
</svg>
