<svg width="28" height="28" viewBox="0 0 28 28" fill="none" xmlns="http://www.w3.org/2000/svg">
<path d="M22.1667 16.3333H5.83333C4.54467 16.3333 3.5 17.3779 3.5 18.6666V22.1666C3.5 23.4552 4.54467 24.4999 5.83333 24.4999H22.1667C23.4553 24.4999 24.5 23.4552 24.5 22.1666V18.6666C24.5 17.3779 23.4553 16.3333 22.1667 16.3333Z" stroke="#134991" stroke-width="2"/>
<path d="M11.6667 4.08325H5.83333C4.54467 4.08325 3.5 5.12792 3.5 6.41659V9.91659C3.5 11.2052 4.54467 12.2499 5.83333 12.2499H11.6667" stroke="#134991" stroke-width="2" stroke-linecap="round"/>
<path d="M19.8334 12.8333C22.4107 12.8333 24.5001 10.744 24.5001 8.16667C24.5001 5.58934 22.4107 3.5 19.8334 3.5C17.2561 3.5 15.1667 5.58934 15.1667 8.16667C15.1667 10.744 17.2561 12.8333 19.8334 12.8333Z" stroke="#134991" stroke-width="2"/>
<path d="M19.8333 9.91675C20.7998 9.91675 21.5833 9.13325 21.5833 8.16675C21.5833 7.20025 20.7998 6.41675 19.8333 6.41675C18.8668 6.41675 18.0833 7.20025 18.0833 8.16675C18.0833 9.13325 18.8668 9.91675 19.8333 9.91675Z" fill="#134991"/>
</svg>
