<svg width="28" height="28" viewBox="0 0 28 28" fill="none" xmlns="http://www.w3.org/2000/svg">
<path d="M22.1667 16.3334H5.83333C4.54467 16.3334 3.5 17.378 3.5 18.6667V22.1667C3.5 23.4554 4.54467 24.5 5.83333 24.5H22.1667C23.4553 24.5 24.5 23.4554 24.5 22.1667V18.6667C24.5 17.378 23.4553 16.3334 22.1667 16.3334Z" stroke="#134991" stroke-width="2"/>
<path d="M11.6667 4.08337H5.83333C4.54467 4.08337 3.5 5.12804 3.5 6.41671V9.91671C3.5 11.2053 4.54467 12.25 5.83333 12.25H11.6667" stroke="#134991" stroke-width="2" stroke-linecap="round"/>
<path d="M19.8334 12.8333C22.4107 12.8333 24.5001 10.744 24.5001 8.16667C24.5001 5.58934 22.4107 3.5 19.8334 3.5C17.2561 3.5 15.1667 5.58934 15.1667 8.16667C15.1667 10.744 17.2561 12.8333 19.8334 12.8333Z" stroke="#134991" stroke-width="2"/>
<path d="M19.8333 9.91663C20.7998 9.91663 21.5833 9.13312 21.5833 8.16663C21.5833 7.20013 20.7998 6.41663 19.8333 6.41663C18.8668 6.41663 18.0833 7.20013 18.0833 8.16663C18.0833 9.13312 18.8668 9.91663 19.8333 9.91663Z" fill="#134991"/>
</svg>
