<svg width="32" height="32" viewBox="0 0 32 32" fill="none" xmlns="http://www.w3.org/2000/svg">
<g clip-path="url(#clip0_37_175)">
<g clip-path="url(#clip1_37_175)">
<path d="M19.2422 26.5977H26.8242C28.3125 26.5977 29.0625 25.8594 29.0625 24.3125V19.0625C29.0625 17.5273 28.3125 16.7773 26.8242 16.7773H19.2422C17.7539 16.7773 17.0039 17.5273 17.0039 19.0625V24.3125C17.0039 25.8594 17.7539 26.5977 19.2422 26.5977Z" fill="#134991"/>
<path d="M5.23828 26.5977H12.8203C14.3086 26.5977 15.0586 25.8594 15.0586 24.3125V19.0625C15.0586 17.5273 14.3086 16.7773 12.8203 16.7773H5.23828C3.75 16.7773 3 17.5273 3 19.0625V24.3125C3 25.8594 3.75 26.5977 5.23828 26.5977Z" fill="#134991"/>
<path d="M19.2422 14.8438H26.8242C28.3125 14.8438 29.0625 14.0938 29.0625 12.5469V7.30859C29.0625 5.76172 28.3125 5.02344 26.8242 5.02344H19.2422C17.7539 5.02344 17.0039 5.76172 17.0039 7.30859V12.5469C17.0039 14.0938 17.7539 14.8438 19.2422 14.8438Z" fill="#134991"/>
<path d="M5.23828 14.8438H12.8203C14.3086 14.8438 15.0586 14.0938 15.0586 12.5469V7.30859C15.0586 5.76172 14.3086 5.02344 12.8203 5.02344H5.23828C3.75 5.02344 3 5.76172 3 7.30859V12.5469C3 14.0938 3.75 14.8438 5.23828 14.8438Z" fill="#134991"/>
</g>
</g>
<defs>
<clipPath id="clip0_37_175">
<rect width="32" height="32" fill="white"/>
</clipPath>
<clipPath id="clip1_37_175">
<rect width="26.0625" height="21.5977" fill="white" transform="translate(3 5)"/>
</clipPath>
</defs>
</svg>
